<svg width="17" height="17" viewBox="0 0 17 17" fill="none" xmlns="http://www.w3.org/2000/svg">
<path d="M7.43242 9.5675L11.5189 5.48101M15.6992 2.98707L12.2498 14.1978C11.9407 15.2024 11.786 15.705 11.5193 15.8716C11.2881 16.0161 11.0017 16.0403 10.7499 15.9357C10.4594 15.8152 10.2238 15.3446 9.75347 14.4041L7.56869 10.0345C7.49406 9.88524 7.45671 9.81094 7.40687 9.74627C7.3626 9.68893 7.31158 9.63715 7.25424 9.59296C7.191 9.54422 7.11794 9.50771 6.97535 9.43646L2.59563 7.24653C1.65515 6.77634 1.18487 6.54098 1.06436 6.25056C0.959845 5.99869 0.983676 5.71209 1.12818 5.48082C1.29479 5.21416 1.79733 5.05925 2.80233 4.75002L14.013 1.30057C14.8031 1.05747 15.1983 0.936015 15.4652 1.03398C15.6976 1.11932 15.8809 1.3024 15.9662 1.53486C16.0641 1.8016 15.9426 2.1966 15.6997 2.98591L15.6992 2.98707Z" stroke="white" stroke-width="2" stroke-linecap="round" stroke-linejoin="round"/>
</svg>
